<?xml version="1.0" encoding="iso-8859-1"?>
<!-- Uploaded to: SVG Repo, www.svgrepo.com, Generator: SVG Repo Mixer Tools -->
<svg height="800px" width="800px" version="1.1" id="Layer_1" xmlns="http://www.w3.org/2000/svg" xmlns:xlink="http://www.w3.org/1999/xlink" 
	 viewBox="0 0 502.898 502.898" xml:space="preserve">
<g>
	<path style="fill:#805333;" d="M125.758,409.808c-113.459,0-102.4-121.018-102.4-121.018c0-35.17,40.476-124.723,61.747-169.37
		c6.572-13.805,12.288-27.918,18.637-41.835C141.909-6.02,256.085,0.208,256.085,0.208s31.707-5.325,82.944,37.916
		c11.767,9.923,26,16.384,41.081,19.456c18.786,3.817,44.051,15.816,51.004,52.168c3.212,16.766,6.758,33.401,12.335,49.543
		c13.731,39.759,36.054,112.733,36.054,166.735c0,0,12.223,83.782-111.709,83.782"/>
	<path style="fill:#DBB38D;" d="M303.948,455.989c-17.995,12.204-33.857,28.29-57.176,28.29c-23.31,0-39.182-16.086-57.176-28.29
		c-8.769-5.948-17.678-11.748-26.345-17.864v64.773h167.564v-65.126C321.98,444.018,312.885,449.929,303.948,455.989"/>
	<path style="fill:#FDD7AD;" d="M88.521,269.958c119.799-141.75,241.85-148.731,241.85-148.731
		c33.159,16.868-27.927,65.164-27.927,65.164c52.941,0,83.782-37.236,83.782-37.236s18.804,42.058,18.804,103.452
		c0,58.452-4.552,122.75-48.649,164.603c-15.816,15.016-34.434,26.577-52.429,38.782c-17.994,12.204-33.857,28.29-57.176,28.29
		c-23.319,0-39.182-16.086-57.176-28.29c-17.994-12.204-36.52-23.869-52.429-38.782C82.703,366.168,88.521,269.958,88.521,269.958"
		/>
</g>
</svg>